<svg width="100%" height="100%" viewBox="0 0 600 667" version="1.1" xmlns="http://www.w3.org/2000/svg" xmlns:xlink="http://www.w3.org/1999/xlink" xml:space="preserve" xmlns:serif="http://www.serif.com/" style="fill-rule:evenodd;clip-rule:evenodd;stroke-linecap:round;stroke-linejoin:round;"><g id="SVGRepo_iconCarrier"><clipPath id="_clip1"><rect x="-3.648" y="2.39" width="608.805" height="670.943"/></clipPath><g clip-path="url(#_clip1)"><path d="M33.333,566.667l0,-426.667c0,-37.337 0,-56.005 7.267,-70.266c6.391,-12.544 16.59,-22.743 29.134,-29.134c14.261,-7.267 32.929,-7.267 70.266,-7.267l320,0c37.337,0 56.007,0 70.267,7.267c12.543,6.391 22.743,16.59 29.133,29.134c7.267,14.261 7.267,32.929 7.267,70.266l-0,360l-466.667,0c-36.819,0 -66.667,29.847 -66.667,66.667Zm0,-0c0,36.82 29.848,66.666 66.667,66.666l466.667,0m-366.667,-466.666l200,-0m-200,133.333l200,-0m133.333,200l0,133.333" style="fill:none;fill-rule:nonzero;stroke:#f7f7f7;stroke-width:66.67px;"/></g></g></svg>