<svg width="100%" height="100%" viewBox="0 0 517 450" version="1.1" xmlns="http://www.w3.org/2000/svg" xmlns:xlink="http://www.w3.org/1999/xlink" xml:space="preserve" xmlns:serif="http://www.serif.com/" style="fill-rule:evenodd;clip-rule:evenodd;stroke-linecap:round;stroke-linejoin:round;"><g id="SVGRepo_iconCarrier"><path d="M125,125l0,133.9c0,73.637 59.695,133.333 133.333,133.333c73.637,0 133.334,-59.696 133.334,-133.333l-0,-133.9l-266.667,0Z" style="fill:none;stroke:#f7f7f7;stroke-width:50px;"/><path d="M166.667,125c-0,13.807 11.193,25 25,25c13.806,0 25,-11.193 25,-25l-50,0Zm133.333,0c0,13.807 11.193,25 25,25c13.807,0 25,-11.193 25,-25l-50,0Zm-16.667,133.9c0,-13.807 -11.193,-25 -25,-25c-13.806,0 -25,11.193 -25,25l50,0Zm-50,133.9c0,13.807 11.194,25 25,25c13.807,0 25,-11.193 25,-25l-50,0Zm-208.333,-158.9c-13.807,0 -25,11.193 -25,25c0,13.807 11.193,25 25,25l0,-50Zm100,50c13.807,0 25,-11.193 25,-25c0,-13.807 -11.193,-25 -25,-25l0,50Zm-48.932,-243.62c-9.731,-9.795 -25.56,-9.846 -35.355,-0.115c-9.795,9.732 -9.846,25.561 -0.115,35.355l35.47,-35.24Zm31.197,102.34c9.732,9.795 25.561,9.846 35.355,0.115c9.795,-9.732 9.846,-25.561 0.115,-35.355l-35.47,35.24Zm74.517,228.587c9.742,-9.784 9.709,-25.614 -0.075,-35.357c-9.784,-9.74 -25.613,-9.707 -35.355,0.077l35.43,35.28Zm-106.13,35.72c-9.743,9.783 -9.709,25.613 0.074,35.356c9.784,9.74 25.613,9.707 35.356,-0.076l-35.43,-35.28Zm416.015,-123.027c13.806,0 25,-11.193 25,-25c-0,-13.807 -11.194,-25 -25,-25l-0,50Zm-100,-50c-13.807,0 -25,11.193 -25,25c-0,13.807 11.193,25 25,25l-0,-50Zm84.4,-158.38c9.733,-9.794 9.68,-25.623 -0.114,-35.355c-9.793,-9.731 -25.623,-9.68 -35.353,0.115l35.467,35.24Zm-102.134,31.86c-9.733,9.794 -9.68,25.623 0.114,35.355c9.793,9.731 25.623,9.68 35.353,-0.115l-35.467,-35.24Zm-3.616,228.547c-9.744,-9.784 -25.574,-9.817 -35.357,-0.077c-9.783,9.743 -9.817,25.573 -0.077,35.357l35.434,-35.28Zm35.266,106.28c9.744,9.783 25.574,9.816 35.357,0.076c9.783,-9.743 9.817,-25.573 0.077,-35.356l-35.434,35.28Zm-188.916,-317.207l-0,-33.333l-50,-0l-0,33.333l50,0Zm-0,-33.333c-0,-23.012 18.653,-41.667 41.666,-41.667l0,-50c-50.626,0 -91.666,41.041 -91.666,91.667l50,-0Zm41.666,-41.667c23.014,0 41.667,18.655 41.667,41.667l50,-0c0,-50.626 -41.04,-91.667 -91.667,-91.667l0,50Zm41.667,41.667l0,33.333l50,0l0,-33.333l-50,-0Zm-66.667,167.233l0,133.9l50,0l0,-133.9l-50,0Zm-208.333,25l100,0l0,-50l-100,0l0,50Zm15.598,-208.38l66.667,67.1l35.47,-35.24l-66.667,-67.1l-35.47,35.24Zm105.754,260.407l-70.7,71l35.43,35.28l70.7,-71l-35.43,-35.28Zm345.315,-102.027l-100,0l-0,50l100,0l-0,-50Zm-51.067,-193.62l-66.667,67.1l35.467,35.24l66.667,-67.1l-35.467,-35.24Zm-105.717,330.927l70.7,71l35.434,-35.28l-70.7,-71l-35.434,35.28Z" style="fill:#f7f7f7;fill-rule:nonzero;"/></g></svg>