<?xml version="1.0" encoding="utf-8"?>
<!-- Generator: Adobe Illustrator 27.6.0, SVG Export Plug-In . SVG Version: 6.00 Build 0)  -->
<svg version="1.1" id="Layer_1" xmlns="http://www.w3.org/2000/svg" xmlns:xlink="http://www.w3.org/1999/xlink" x="0px" y="0px"
	 viewBox="0 0 24 24" style="enable-background:new 0 0 24 24;" xml:space="preserve">
<path d="M21.6,6.9c-0.3,0-0.6,0.1-0.9,0.2l-5.5-5.5c-2.1-2.1-5.4-2.1-7.5,0C5.7,3.7,5.7,7,7.7,9.1l7.2,7.2c0.6,0.6,1,1.5,1,2.4
	c0,0.9-0.4,1.7-1,2.4c-1.3,1.3-3.5,1.3-4.8,0l-5.5-5.5c0.1-0.3,0.2-0.6,0.2-0.9c0-1.3-1.1-2.4-2.4-2.4c-1.3,0-2.4,1.1-2.4,2.4
	S1.1,17,2.4,17c0.3,0,0.6-0.1,0.8-0.2l5.6,5.6c1,1,2.4,1.5,3.7,1.5s2.7-0.5,3.7-1.5c1-1,1.5-2.3,1.5-3.7c0-1.4-0.5-2.7-1.5-3.7
	L9.1,7.7C7.8,6.4,7.8,4.3,9.1,3s3.4-1.3,4.8,0l5.5,5.5c-0.1,0.3-0.2,0.6-0.2,0.9c0,1.3,1.1,2.4,2.4,2.4c1.3,0,2.4-1.1,2.4-2.4
	C24,8,22.9,6.9,21.6,6.9z"/>
</svg>
