<?xml version="1.0" encoding="utf-8"?>
<!-- Generator: Adobe Illustrator 27.6.0, SVG Export Plug-In . SVG Version: 6.00 Build 0)  -->
<svg version="1.1" id="Layer_1" xmlns="http://www.w3.org/2000/svg" xmlns:xlink="http://www.w3.org/1999/xlink" x="0px" y="0px"
	 viewBox="0 0 24 24" style="enable-background:new 0 0 24 24;" xml:space="preserve">
<g>
	<path d="M10.6,24c-0.5,0-1-0.4-1-1V9.4L2.2,1.6c-0.4-0.4-0.3-1,0-1.3c0.4-0.4,1-0.4,1.3,0l7.7,8c0.2,0.2,0.3,0.4,0.3,0.7V23
		C11.6,23.6,11.1,24,10.6,24z"/>
	<path d="M13.4,24c-0.5,0-1-0.4-1-1V9c0-0.2,0.1-0.5,0.3-0.7l7.7-8c0.4-0.4,1-0.4,1.3,0c0.4,0.4,0.4,1,0,1.3l-7.4,7.8V23
		C14.3,23.6,13.9,24,13.4,24z"/>
	<path d="M5.8,8.9c-0.3,0-0.5-0.1-0.7-0.3l-4.8-5c-0.4-0.4-0.3-1,0-1.3c0.4-0.4,1-0.4,1.3,0l4.8,5c0.4,0.4,0.3,1,0,1.3
		C6.2,8.9,6,8.9,5.8,8.9z"/>
	<path d="M18.2,8.9c-0.2,0-0.5-0.1-0.7-0.3c-0.4-0.4-0.4-1,0-1.3l4.8-5c0.4-0.4,1-0.4,1.3,0c0.4,0.4,0.4,1,0,1.3l-4.8,5
		C18.7,8.8,18.5,8.9,18.2,8.9z"/>
</g>
</svg>
