<?xml version="1.0" encoding="utf-8"?>
<!-- Generator: Adobe Illustrator 27.6.0, SVG Export Plug-In . SVG Version: 6.00 Build 0)  -->
<svg version="1.1" id="Layer_1" xmlns="http://www.w3.org/2000/svg" xmlns:xlink="http://www.w3.org/1999/xlink" x="0px" y="0px"
	 viewBox="0 0 24 24" style="enable-background:new 0 0 24 24;" xml:space="preserve">
<path d="M22.4,24h-8.7V9.8l0.4-0.3c1.3-0.8,2-2.1,2-3.5c0-2.3-1.9-4.1-4.1-4.1C9.7,1.9,7.9,3.7,7.9,6c0,1.5,0.8,2.8,2,3.5l0.5,0.3
	V24H1.6v-1.9h6.9V10.8C6.9,9.7,6,7.9,6,6c0-3.3,2.7-6,6-6s6,2.7,6,6c0,1.9-0.9,3.7-2.5,4.8v11.3h6.9V24z"/>
</svg>
