<?xml version="1.0" encoding="utf-8"?>
<!-- Generator: Adobe Illustrator 27.6.0, SVG Export Plug-In . SVG Version: 6.00 Build 0)  -->
<svg version="1.1" id="Layer_1" xmlns="http://www.w3.org/2000/svg" xmlns:xlink="http://www.w3.org/1999/xlink" x="0px" y="0px"
	 viewBox="0 0 24 24" style="enable-background:new 0 0 24 24;" xml:space="preserve">
<g>
	<path d="M12,24C5.4,24,0,18.6,0,12C0,5.4,5.4,0,12,0c6.6,0,12,5.4,12,12C24,18.6,18.6,24,12,24z M12,1.9C6.4,1.9,1.9,6.4,1.9,12
		S6.4,22.1,12,22.1S22.1,17.6,22.1,12S17.6,1.9,12,1.9z"/>
	<path d="M18.2,12.9H5.8c-0.5,0-0.9-0.4-0.9-0.9s0.4-0.9,0.9-0.9h12.4c0.5,0,0.9,0.4,0.9,0.9S18.7,12.9,18.2,12.9z"/>
</g>
</svg>
