<?xml version="1.0" encoding="utf-8"?>
<!-- Generator: Adobe Illustrator 27.6.0, SVG Export Plug-In . SVG Version: 6.00 Build 0)  -->
<svg version="1.1" id="Layer_1" xmlns="http://www.w3.org/2000/svg" xmlns:xlink="http://www.w3.org/1999/xlink" x="0px" y="0px"
	 viewBox="0 0 24 24" style="enable-background:new 0 0 24 24;" xml:space="preserve">
<style type="text/css">
	.st0{fill:#020202;}
</style>
<g>
	<path class="st0" d="M20.6,0H3.4C1.5,0,0,1.5,0,3.4v17.2C0,22.5,1.5,24,3.4,24h17.2c1.9,0,3.4-1.5,3.4-3.4V3.4
		C24,1.5,22.5,0,20.6,0z M22.5,20.6c0,1.1-0.9,1.9-1.9,1.9H3.4c-1.1,0-1.9-0.9-1.9-1.9V3.4c0-1.1,0.9-1.9,1.9-1.9h17.2
		c1.1,0,1.9,0.9,1.9,1.9V20.6z"/>
	<path class="st0" d="M16.6,7.4c-0.3-0.3-0.8-0.3-1.1,0L12,10.9L8.5,7.4c-0.3-0.3-0.8-0.3-1.1,0s-0.3,0.8,0,1.1l3.5,3.5l-3.5,3.5
		c-0.3,0.3-0.3,0.8,0,1.1c0.1,0.1,0.3,0.2,0.5,0.2s0.4-0.1,0.5-0.2l3.5-3.5l3.5,3.5c0.1,0.1,0.3,0.2,0.5,0.2s0.4-0.1,0.5-0.2
		c0.3-0.3,0.3-0.8,0-1.1L13.1,12l3.5-3.5C16.9,8.2,16.9,7.7,16.6,7.4z"/>
</g>
</svg>
