<?xml version="1.0" encoding="utf-8"?>
<!-- Generator: Adobe Illustrator 27.6.0, SVG Export Plug-In . SVG Version: 6.00 Build 0)  -->
<svg version="1.1" id="Layer_1" xmlns="http://www.w3.org/2000/svg" xmlns:xlink="http://www.w3.org/1999/xlink" x="0px" y="0px"
	 viewBox="0 0 24 24" style="enable-background:new 0 0 24 24;" xml:space="preserve">
<g>
	<path d="M5.6,2.5c-1.7,0-3.2,1.4-3.2,3.2s1.4,3.2,3.2,3.2s3.2-1.4,3.2-3.2c0-0.8-0.3-1.6-0.9-2.2C7.3,2.8,6.5,2.5,5.6,2.5z
		 M5.6,6.9C5,6.9,4.4,6.3,4.4,5.6S5,4.4,5.6,4.4c0.7,0,1.2,0.5,1.2,1.2S6.3,6.9,5.6,6.9z"/>
	<path d="M11.7,1c-0.6-0.6-1.4-1-2.3-1L4.5,0C3.2,0,2.1,0.5,1.3,1.3C0.5,2.1,0,3.2,0,4.5l0,5c0.1,0.9,0.4,1.6,1,2.2L13.3,24L24,13.3
		L11.7,1z M2,9.4l0-4.9c0-0.6,0.3-1.3,0.7-1.8c0.5-0.5,1.1-0.8,1.8-0.8l4.9,0c0.3,0,0.7,0.1,0.9,0.4l10.9,10.9l-8,8L2.4,10.3
		C2.1,10.1,2,9.8,2,9.4z"/>
</g>
</svg>
