<?xml version="1.0" encoding="utf-8"?>
<!-- Generator: Adobe Illustrator 27.6.0, SVG Export Plug-In . SVG Version: 6.00 Build 0)  -->
<svg version="1.1" id="Layer_1" xmlns="http://www.w3.org/2000/svg" xmlns:xlink="http://www.w3.org/1999/xlink" x="0px" y="0px"
	 viewBox="0 0 24 24" style="enable-background:new 0 0 24 24;" xml:space="preserve">
<path d="M22.4,4.1l-2.5-2.5c-1-1-2.5-1.6-3.9-1.6c-1.5,0-2.8,0.6-3.9,1.6L1.6,12.1c-1,1-1.6,2.4-1.6,3.9c0,1.4,0.6,2.8,1.6,3.9
	l2.5,2.5c1,1,2.5,1.6,3.9,1.6c1.5,0,2.8-0.6,3.9-1.6l10.5-10.5C24.6,9.7,24.5,6.3,22.4,4.1z M15.2,16.3L10.4,21
	c-0.7,0.7-1.5,1-2.5,1c-0.9,0-1.9-0.4-2.5-1l-2.5-2.5c-0.7-0.8-1-1.6-1-2.5c0-0.9,0.4-1.9,1-2.5l4.8-4.8L15.2,16.3z M22.1,7.9
	c0,0.9-0.4,1.9-1,2.5l-4.4,4.4L9.1,7.3L13.5,3c0.7-0.7,1.5-1,2.5-1c0.9,0,1.9,0.4,2.5,1L21,5.4C21.7,6.2,22.1,7.1,22.1,7.9z"/>
</svg>
