<?xml version="1.0" encoding="utf-8"?>
<!-- Generator: Adobe Illustrator 27.6.0, SVG Export Plug-In . SVG Version: 6.00 Build 0)  -->
<svg version="1.1" id="Layer_1" xmlns="http://www.w3.org/2000/svg" xmlns:xlink="http://www.w3.org/1999/xlink" x="0px" y="0px"
	 viewBox="0 0 24 24" style="enable-background:new 0 0 24 24;" xml:space="preserve">
<path d="M23.8,5.5L23.8,5.5c-0.2-0.3-0.5-0.4-0.8-0.4H6L5.8,4.2C5.5,2.8,4.2,1.8,2.7,1.8H1c-0.5,0-1,0.4-1,1s0.4,1,1,1h1.8
	c0.6,0,1.1,0.4,1.2,1l2.2,10c-0.5,0.4-0.7,1-0.7,1.6c0.1,0.8,0.6,1.6,1.5,1.7c-0.9,0.2-1.6,1.1-1.6,2.1c0,1.2,1,2.1,2.1,2.1
	s2.1-1,2.1-2.1c0-0.9-0.6-1.7-1.5-2h9.2c-0.9,0.3-1.5,1.1-1.5,2c0,1.2,1,2.1,2.1,2.1s2.1-1,2.1-2.1c0-0.9-0.6-1.7-1.5-2h0.8
	c0.5,0,1-0.4,1-1c0-0.5-0.4-1-1-1l-12.1,0L19.9,14c0.9-0.2,1.7-0.8,2-1.7l2.1-5.9C24,6.1,24,5.8,23.8,5.5z M23.5,5.8L23.5,5.8
	L23.5,5.8L23.5,5.8z M8,14.1L6.5,7h15.2l-1.6,4.6c-0.1,0.2-0.3,0.4-0.5,0.4L8,14.1z"/>
</svg>
