<?xml version="1.0" encoding="utf-8"?>
<!-- Generator: Adobe Illustrator 27.6.0, SVG Export Plug-In . SVG Version: 6.00 Build 0)  -->
<svg version="1.1" id="Layer_1" xmlns="http://www.w3.org/2000/svg" xmlns:xlink="http://www.w3.org/1999/xlink" x="0px" y="0px"
	 viewBox="0 0 24 24" style="enable-background:new 0 0 24 24;" xml:space="preserve">
<path d="M23.4,18.7l-3-1.3c0.4-1.1,0.4-2.3,0-3.3l2.3-1.5c0.2-0.2,0.4-0.4,0.4-0.7c0-0.2-0.1-0.4-0.2-0.6c-0.2-0.2-0.4-0.4-0.7-0.4
	c-0.2,0-0.4,0.1-0.6,0.2l-2.4,1.5L17,10l3.8-3.1c0.4-0.4,0.5-0.9,0.1-1.4C20.5,5.1,20,5,19.5,5.4l-3.8,3.1l-2-2.4L17,2.4
	c0.4-0.4,0.4-1,0-1.4s-1-0.4-1.4,0l-3,3.3L12.3,4c-0.6-0.5-1.4-1-2.3-1.3L9.8,0.8c0-0.3-0.1-0.5-0.3-0.6C9.3,0,9,0,8.8,0
	C8.5,0,8.3,0.1,8.1,0.3C8,0.6,7.9,0.8,8,1.1l0.2,1.5C7.2,2.7,6.4,3,5.8,3.5L5.1,4.1C4.8,4.4,4.7,4.5,4.5,4.8L1.4,3.3
	C0.9,3,0.4,3.2,0.1,3.7C0,3.9,0,4.2,0,4.4C0.1,4.6,0.2,4.8,0.5,5l3.1,1.5c0,0.1-0.1,0.3-0.1,0.4c0,0.2,0,0.4,0,0.4
	c0,0.8,0.1,1.5,0.3,2.1l-3.1,2.3C0.3,12,0.2,12.6,0.4,13c0.2,0.3,0.6,0.4,0.8,0.4s0.4,0,0.5-0.1L4.8,11l3.4,4L7,15.8
	c-0.4,0.4-0.5,0.9-0.1,1.3c0.2,0.3,0.6,0.4,0.8,0.4c0.2,0,0.3-0.1,0.5-0.2c0,0,0.1,0,0.2-0.1l1.1-0.9l2.3,2.8
	c0.4,0.5,0.9,0.8,1.3,1.1L13,23c0,0.5,0.4,1,0.9,1s0.9-0.3,1-0.9L15,21l0,0c0.1,0,0.2,0.1,0.3,0.1c1.1,0,2.2-0.4,3-1.1l0.7-0.6
	l0.2-0.2l3.4,1.5h0.1c0,0,0,0,0.1,0s0.1,0.1,0.2,0.1c0.4,0,0.8-0.3,0.9-0.7C24.1,19.3,23.9,18.8,23.4,18.7z M18.8,16
	c-0.1,0.7-0.4,1.4-1,1.8l-0.7,0.6c-1.1,1-2.8,0.9-3.8-0.3L6,9.5C5.5,8.8,5.4,8,5.4,7.5c0.1-0.8,0.4-1.4,0.9-1.8L7,5
	c0.5-0.4,1.1-0.6,1.8-0.6s1.6,0.4,2.1,1l7.3,8.7C18.6,14.6,18.9,15.3,18.8,16z"/>
</svg>
